<svg width="408.20000000000005" height="101.5141035258815" viewBox="0 0 410.1538461538461 102" class="looka-1j8o68f">
    <defs id="SvgjsDefs1189"></defs>
    <g id="SvgjsG1190" featurekey="symbolContainer" transform="matrix(1,0,0,1,0,0)" fill="#111111">
        <rect xmlns="http://www.w3.org/2000/svg" width="94" height="102" rx="10" ry="10"></rect>
    </g>
    <g id="SvgjsG1191" featurekey="uHI19F-0" transform="matrix(0.6194509267807007,0,0,0.6194509267807007,20,19.999688857009414)" fill="#c7f3ff">
        <path xmlns="http://www.w3.org/2000/svg" d="M43.463,100c-0.207,0-0.414-0.054-0.598-0.161l-42.266-24.4C0.229,75.226,0,74.83,0,74.403V25.599  c0-0.428,0.228-0.822,0.598-1.035L42.865,0.163c0.568-0.334,1.303-0.136,1.634,0.437c0.331,0.572,0.135,1.304-0.438,1.633  L2.394,26.291v47.42l41.069,23.712l41.069-23.712V25.599c0-0.661,0.535-1.196,1.196-1.196s1.196,0.535,1.196,1.196v48.805  c0,0.427-0.229,0.822-0.598,1.035l-42.266,24.4C43.876,99.946,43.67,100,43.463,100z"></path>
        <path xmlns="http://www.w3.org/2000/svg" d="M16.785,34.626c-0.18,0-0.363-0.04-0.536-0.126L0.66,26.669c-0.59-0.297-0.829-1.017-0.532-1.608  c0.297-0.589,1.012-0.832,1.606-0.533l15.589,7.831c0.59,0.297,0.829,1.017,0.532,1.608C17.645,34.385,17.223,34.626,16.785,34.626z  "></path>
        <path xmlns="http://www.w3.org/2000/svg" d="M43.463,100c-0.661,0-1.196-0.535-1.196-1.196V81.364c0-0.661,0.535-1.196,1.196-1.196s1.196,0.535,1.196,1.196v17.439  C44.659,99.465,44.124,100,43.463,100z"></path>
        <path xmlns="http://www.w3.org/2000/svg" d="M43.462,81.577c-0.192,0-0.386-0.047-0.566-0.143L16.22,67.077c-0.388-0.208-0.629-0.614-0.629-1.054l-0.001-32.594  c0-0.661,0.535-1.196,1.197-1.196c0.661,0,1.196,0.535,1.196,1.196l0.001,31.878L44.03,79.326c0.582,0.313,0.8,1.04,0.487,1.622  C44.301,81.348,43.888,81.577,43.462,81.577z"></path>
        <path xmlns="http://www.w3.org/2000/svg" d="M16.788,34.626c-0.41,0-0.81-0.21-1.033-0.591c-0.334-0.568-0.144-1.302,0.425-1.636l26.676-15.675  c0.569-0.336,1.304-0.147,1.638,0.425c0.335,0.568,0.145,1.301-0.425,1.636L17.394,34.46C17.203,34.572,16.994,34.626,16.788,34.626  z"></path>
        <path xmlns="http://www.w3.org/2000/svg" d="M16.99,67.203c-0.41,0-0.81-0.21-1.033-0.591c-0.334-0.568-0.144-1.302,0.425-1.636L43.06,49.301  c0.569-0.336,1.304-0.147,1.639,0.425c0.334,0.568,0.144,1.301-0.426,1.636L17.596,67.037C17.405,67.149,17.196,67.203,16.99,67.203  z"></path>
        <path xmlns="http://www.w3.org/2000/svg" d="M43.463,51.701c-0.661,0-1.196-0.535-1.196-1.197v-32.75c0-0.661,0.535-1.196,1.196-1.196s1.196,0.535,1.196,1.196v32.75  C44.659,51.166,44.124,51.701,43.463,51.701z"></path>
        <path xmlns="http://www.w3.org/2000/svg" d="M43.463,100c-0.207,0-0.414-0.054-0.598-0.161l-42.266-24.4C0.229,75.226,0,74.83,0,74.403V25.599  c0-0.661,0.535-1.196,1.197-1.196c0.661,0,1.196,0.535,1.196,1.196v48.112l41.069,23.712l41.069-23.712v-47.42L42.865,2.233  c-0.573-0.33-0.769-1.061-0.438-1.633c0.329-0.573,1.062-0.771,1.634-0.437l42.266,24.401c0.369,0.213,0.598,0.607,0.598,1.035  v48.805c0,0.427-0.229,0.822-0.598,1.035l-42.266,24.4C43.876,99.946,43.67,100,43.463,100z"></path>
        <path xmlns="http://www.w3.org/2000/svg" d="M70.143,34.626c-0.438,0-0.86-0.241-1.07-0.659c-0.295-0.591-0.057-1.311,0.532-1.608l15.587-7.831  c0.596-0.297,1.309-0.056,1.607,0.533c0.295,0.591,0.057,1.311-0.532,1.608L70.68,34.5C70.507,34.586,70.324,34.626,70.143,34.626z"></path>
        <path xmlns="http://www.w3.org/2000/svg" d="M43.463,100c-0.661,0-1.196-0.535-1.196-1.196V80.381c0-0.662,0.535-1.197,1.196-1.197s1.196,0.535,1.196,1.197v18.423  C44.659,99.465,44.124,100,43.463,100z"></path>
        <path xmlns="http://www.w3.org/2000/svg" d="M43.464,81.577c-0.426,0-0.839-0.229-1.055-0.629c-0.313-0.582-0.095-1.309,0.487-1.622l26.045-14.019l0.004-31.878  c0-0.661,0.538-1.196,1.197-1.196l0,0c0.661,0,1.196,0.535,1.196,1.196l-0.005,32.594c0,0.439-0.24,0.846-0.629,1.054L44.03,81.435  C43.85,81.53,43.656,81.577,43.464,81.577z"></path>
        <path xmlns="http://www.w3.org/2000/svg" d="M70.138,34.626c-0.206,0-0.416-0.054-0.605-0.166L42.856,18.785c-0.569-0.334-0.759-1.068-0.425-1.636  c0.336-0.573,1.068-0.762,1.638-0.425l26.676,15.675c0.57,0.334,0.76,1.068,0.425,1.636C70.946,34.416,70.549,34.626,70.138,34.626z  "></path>
        <path xmlns="http://www.w3.org/2000/svg" d="M69.937,67.203c-0.206,0-0.414-0.054-0.603-0.166L42.657,51.362c-0.569-0.335-0.759-1.068-0.425-1.636  c0.336-0.572,1.068-0.762,1.638-0.425l26.674,15.676c0.57,0.334,0.762,1.067,0.426,1.636C70.747,66.993,70.348,67.203,69.937,67.203  z"></path>
        <path xmlns="http://www.w3.org/2000/svg" d="M43.463,51.701c-0.661,0-1.196-0.535-1.196-1.197v-32.75c0-0.661,0.535-1.196,1.196-1.196s1.196,0.535,1.196,1.196v32.75  C44.659,51.166,44.124,51.701,43.463,51.701z"></path>
    </g>
</svg>